{"title":"Imagine.Me.And.You.2005.DVDRiP.x264.AC3.NORDIC.mkv.Zen_Bud","uid":5802786,"size":1240525123,"categoryP":"video","categoryS":"movies","magnet":"?xt=urn:btih:0b0dcb5c7bc51d00b7261d11f3620f5bf1d8daa5&amp;dn=Imagine.Me.And.You.2005.DVDRiP.x264.AC3.NORDIC.mkv.Zen_Bud&amp;tr=udp%3A%2F%2Ftracker.openbittorrent.com%3A80&amp;tr=udp%3A%2F%2Fopen.demonii.com%3A1337&amp;tr=udp%3A%2F%2Ftracker.coppersurfer.tk%3A6969&amp;tr=udp%3A%2F%2Fexodus.desync.com%3A6969","seeders":1,"leechers":1,"uploader":"Zen_Bud","files":-1,"time":1283328272,"description":"\n******Imagine.Me.And.You.2005.DVDRiP.x264.AC3.NORDIC.mkv.Zen_Bud.mkv******\n\n\nFormat                           : Matroska\nFile size                        : 1.16 GiB\nDuration                         : 1h 29mn\nOverall bit rate                 : 1 842 Kbps\nWriting application              : HandBrake 0.9.4\n\nVideo\nFormat                           : AVC\nDuration                         : 1h 29mn\nBit rate                         : 1 357 Kbps\nWidth                            : 720 pixels\nHeight                           : 436 pixels\nDisplay aspect ratio             : 2.35:1\nStream size                      : 872 MiB (74%)\nWriting library                  : x264 core 79\n\nAudio\n\nFormat                           : AC-3\nDuration                         : 1h 29mn\nBit rate                         : 448 Kbps\nChannel(s)                       : 6 channels\nChannel positions                : Front: L C R, Side: L R, LFE\nSampling rate                    : 48.0 KHz\nBit depth                        : 16 bits\nStream size                      : 288 MiB (24%)\nLanguage                         : English\n\nText #1\nLanguage                         : Danish\n\nText #2\nLanguage                         : Finnish\n\nText #3\nLanguage                         : Norwegian\n\nText #4\nLanguage                         : Swedish\n\nMenu\n00:00:00.000                     : Chapter 1\n00:05:54.160                     : Chapter 2\n\n\n","torrent":{"xt":"urn:btih:0b0dcb5c7bc51d00b7261d11f3620f5bf1d8daa5","amp;dn":"Imagine.Me.And.You.2005.DVDRiP.x264.AC3.NORDIC.mkv.Zen_Bud","amp;tr":["udp%3A%2F%2Ftracker.openbittorrent.com%3A80","udp%3A%2F%2Fopen.demonii.com%3A1337","udp%3A%2F%2Ftracker.coppersurfer.tk%3A6969","udp%3A%2F%2Fexodus.desync.com%3A6969"],"infoHash":"0b0dcb5c7bc51d00b7261d11f3620f5bf1d8daa5","infoHashBuffer":{"type":"Buffer","data":[11,13,203,92,123,197,29,0,183,38,29,17,243,98,15,91,241,216,218,165]},"announce":[],"urlList":[]}}